<svg xmlns="http://www.w3.org/2000/svg" width="200" height="250" fill="none" viewBox="0 0 200 250"><path fill="#61DAFB" d="M7.72804 229.879L0.00897164 24.2005C-0.245959 17.4078 4.96247 11.651 11.7468 11.227L186.69 0.293011C193.596 -0.138589 199.544 5.10962 199.976 12.0152C199.992 12.2754 200 12.536 200 12.7967V236.919C200 243.839 194.391 249.448 187.472 249.448C187.284 249.448 187.097 249.443 186.91 249.435L19.6852 241.924C13.1725 241.632 7.97253 236.393 7.72804 229.879Z"/><path fill="#fff" d="M106.855 120.182C106.855 121.614 116.485 120.928 117.777 119.922C117.777 110.176 112.554 105.054 102.988 105.054C93.4227 105.054 88.0634 110.255 88.0634 118.057C88.0634 131.646 106.38 131.906 106.38 139.318C106.38 141.399 105.363 142.634 103.124 142.634C100.207 142.634 99.0535 141.142 99.1892 136.071C99.1892 134.971 88.0634 134.628 87.7242 136.071C86.8604 148.361 94.5082 151.905 103.26 151.905C111.74 151.905 118.388 147.38 118.388 139.188C118.388 124.624 99.7997 125.014 99.7997 117.797C99.7997 114.872 101.971 114.482 103.26 114.482C104.616 114.482 107.059 114.721 106.855 120.182Z"/><path fill="#fff" d="M186.398 128.497C186.398 117.442 172.564 106.965 151.355 100.468C156.25 78.8339 154.074 61.6219 144.489 56.1114C142.28 54.8188 139.697 54.2065 136.876 54.2065V61.792C138.439 61.792 139.697 62.0981 140.751 62.6764C145.373 65.3296 147.378 75.4323 145.815 88.4263C145.441 91.6238 144.829 94.9913 144.082 98.4269C137.42 96.7942 130.146 95.5356 122.498 94.7192C117.91 88.4263 113.151 82.7117 108.359 77.7113C119.439 67.4046 129.84 61.758 136.91 61.758V54.1725C127.563 54.1725 115.327 60.8396 102.955 72.4049C90.5826 60.9076 78.3466 54.3085 68.9996 54.3085V61.894C76.0353 61.894 86.47 67.5066 97.5504 77.7454C92.7919 82.7457 88.0335 88.4263 83.5129 94.7192C75.8314 95.5356 68.5577 96.7942 61.8958 98.4609C61.1141 95.0594 60.5363 91.7598 60.1284 88.5964C58.5309 75.6024 60.5023 65.4997 65.0908 62.8125C66.1105 62.2002 67.4361 61.9281 68.9996 61.9281V54.3426C66.1445 54.3426 63.5613 54.9548 61.318 56.2474C51.7671 61.758 49.6258 78.9359 54.5542 100.502C33.4129 107.033 19.6474 117.476 19.6474 128.497C19.6474 139.552 33.4809 150.029 54.6901 156.526C49.7957 178.16 51.971 195.372 61.5559 200.882C63.7652 202.175 66.3484 202.787 69.2035 202.787C78.5505 202.787 90.7866 196.12 103.159 184.555C115.531 196.052 127.767 202.651 137.114 202.651C139.969 202.651 142.552 202.039 144.795 200.746C154.346 195.236 156.488 178.058 151.559 156.492C172.632 149.995 186.398 139.518 186.398 128.497ZM142.144 105.808C140.887 110.196 139.323 114.72 137.556 119.245C136.162 116.523 134.701 113.802 133.103 111.081C131.54 108.359 129.874 105.706 128.209 103.121C133.035 103.835 137.692 104.72 142.144 105.808ZM126.577 142.035C123.926 146.627 121.207 150.981 118.386 155.029C113.321 155.471 108.189 155.709 103.023 155.709C97.8903 155.709 92.758 155.471 87.7276 155.063C84.9065 151.015 82.1534 146.695 79.5022 142.137C76.919 137.681 74.5738 133.157 72.4325 128.599C74.5398 124.041 76.919 119.483 79.4682 115.027C82.1194 110.434 84.8385 106.08 87.6596 102.033C92.724 101.59 97.8563 101.352 103.023 101.352C108.155 101.352 113.287 101.59 118.318 101.999C121.139 106.046 123.892 110.366 126.543 114.925C129.126 119.381 131.472 123.905 133.613 128.463C131.472 133.021 129.126 137.579 126.577 142.035ZM137.556 137.613C139.391 142.171 140.955 146.729 142.246 151.151C137.794 152.24 133.103 153.158 128.243 153.873C129.908 151.253 131.574 148.566 133.137 145.811C134.701 143.09 136.162 140.334 137.556 137.613ZM103.091 173.908C99.9297 170.642 96.7687 167.003 93.6417 163.023C96.7007 163.159 99.8277 163.261 102.989 163.261C106.184 163.261 109.345 163.193 112.438 163.023C109.379 167.003 106.218 170.642 103.091 173.908ZM77.8027 153.873C72.9763 153.158 68.3198 152.274 63.8672 151.185C65.1248 146.797 66.6883 142.273 68.4557 137.749C69.8493 140.47 71.3108 143.192 72.9083 145.913C74.5058 148.634 76.1373 151.287 77.8027 153.873ZM102.921 83.0858C106.082 86.3513 109.243 89.991 112.37 93.9709C109.311 93.8348 106.184 93.7327 103.023 93.7327C99.8277 93.7327 96.6667 93.8008 93.5737 93.9709C96.6327 89.991 99.7937 86.3513 102.921 83.0858ZM77.7688 103.121C76.1033 105.74 74.4378 108.428 72.8743 111.183C71.3108 113.904 69.8493 116.625 68.4557 119.347C66.6203 114.788 65.0568 110.23 63.7652 105.808C68.2178 104.754 72.9083 103.835 77.7688 103.121ZM47.0086 145.709C34.9765 140.572 27.1929 133.837 27.1929 128.497C27.1929 123.156 34.9765 116.387 47.0086 111.285C49.9317 110.026 53.1266 108.904 56.4236 107.849C58.361 114.516 60.9102 121.456 64.0711 128.565C60.9441 135.64 58.429 142.545 56.5256 149.178C53.1606 148.124 49.9657 146.967 47.0086 145.709ZM65.2947 194.317C60.6722 191.664 58.6669 181.561 60.2304 168.567C60.6043 165.37 61.2161 162.002 61.9638 158.567C68.6257 160.199 75.8994 161.458 83.5469 162.274C88.1354 168.567 92.8939 174.282 97.6864 179.282C86.6059 189.589 76.2053 195.236 69.1355 195.236C67.606 195.202 66.3144 194.895 65.2947 194.317ZM145.917 168.397C147.514 181.391 145.543 191.494 140.955 194.181C139.935 194.793 138.609 195.066 137.046 195.066C130.01 195.066 119.575 189.453 108.495 179.214C113.253 174.214 118.012 168.533 122.532 162.24C130.214 161.424 137.488 160.165 144.15 158.499C144.931 161.934 145.543 165.234 145.917 168.397ZM159.003 145.709C156.08 146.967 152.885 148.09 149.588 149.144C147.65 142.477 145.101 135.538 141.94 128.429C145.067 121.353 147.582 114.448 149.486 107.815C152.851 108.87 156.046 110.026 159.037 111.285C171.069 116.421 178.852 123.156 178.852 128.497C178.818 133.837 171.035 140.606 159.003 145.709Z"/><path fill="#fff" d="M157.668 1.91204L155.879 30.6216C155.852 31.0552 155.977 31.4847 156.232 31.8362C156.839 32.6713 158.008 32.8565 158.843 32.2498L169.982 24.1577L179.094 31.6464C179.435 31.927 179.865 32.0775 180.307 32.0712C181.339 32.0566 182.163 31.208 182.149 30.176L181.727 0.521931L157.668 1.91204Z"/></svg>